<?xml version="1.0" encoding="utf-8"?>
<!DOCTYPE svg PUBLIC "-//W3C//DTD SVG 1.1//EN" "http://www.w3.org/Graphics/SVG/1.1/DTD/svg11.dtd">
<svg version="1.1" xmlns="http://www.w3.org/2000/svg" width="600px" height="480px" viewBox="0 0 600 480" preserveAspectRatio="xMidYMid meet">
 <g fill="#ffaf00">
  <path d="M95 374 c0 -16 0 -16 8 -16 8 0 8 0 8 3 0 2.9 -0.1 3 -5 3 -5 0 -5 0 -5 3.5 0 3.5 0 3.5 5 3.5 4.9 0 5 0.1 5 3 0 2.9 -0.1 3 -5 3 -5 0 -5 0 -5 6.5 0 6.5 0 6.5 -3 6.5 -3 0 -3 0 -3 -16z"/>
  <path d="M135.5 388.6 c-10.1 -4.4 -12.5 -17.8 -4.6 -25.7 6.5 -6.6 15.5 -6.5 22.1 0.1 6 6 6.6 13.7 1.4 20.6 -4.3 5.8 -12.3 7.9 -18.9 5z m11.4 -6 c6.6 -3.5 6.6 -13.7 0 -17.2 -7.9 -4.1 -16.1 2.2 -14.5 11 1.2 6.5 8.2 9.4 14.5 6.2z"/>
  <path d="M183.2 388.4 c-10.7 -5.5 -11.8 -20.5 -2.1 -27.5 4.5 -3.2 13.4 -3.4 17.5 -0.3 5.3 3.9 6.9 7.1 6.9 13.4 0 6.3 -1.6 9.5 -6.7 13.3 -3.6 2.7 -11.4 3.2 -15.6 1.1z m13.9 -7.3 c3.1 -3.1 3.9 -8.3 1.9 -12.2 -1.3 -2.4 -6.1 -4.9 -9.6 -4.9 -3.7 0 -9.4 5.9 -9.4 9.7 0.1 9.1 10.8 13.7 17.1 7.4z"/>
  <path d="M224 374 c0 -16.2 0 -16.2 5.4 -15.8 20.5 1.7 20.6 29.9 0.1 31.6 -5.5 0.4 -5.5 0.4 -5.5 -15.8z m12.8 6.4 c2.4 -2.7 3 -8.1 1.2 -11.5 -0.9 -1.6 -5.8 -4.9 -7.5 -4.9 -0.3 0 -0.5 4.5 -0.5 10.1 0 9.9 0 10 2.3 9.4 1.2 -0.4 3.2 -1.8 4.5 -3.1z"/>
  <path d="M274 387.1 c0 -3.1 0 -3.1 5.3 -3.1 5.7 0 7.7 -1.2 7.7 -4.5 0 -2.1 -1.7 -4.5 -3.2 -4.5 -0.4 0 -0.8 0.8 -0.8 1.8 0 2.7 -0.8 3.2 -4.1 2 -4.3 -1.5 -6.9 -5.3 -6.9 -10.2 0.1 -6.5 4.6 -10.6 11.7 -10.6 4.1 0 4.3 0.1 4.3 3 0 2.8 -0.2 3 -4 3 -3.1 0 -4.3 0.5 -5.5 2.4 -1.8 2.6 -1.1 5.2 1.6 6.7 1.7 0.8 1.9 0.6 1.9 -2 0 -2.5 0.3 -2.8 2.3 -2.3 6 1.5 9.4 6.6 8.3 12.5 -1 5.5 -4.6 8 -12.1 8.5 -6.5 0.4 -6.5 0.4 -6.5 -2.7z"/>
  <path d="M316 377 c0 -13 0 -13 -3.5 -13 -3.2 0 -3.5 -0.2 -3.5 -3 0 -3 0 -3 10.5 -3 10.5 0 10.5 0 10.5 3 0 2.8 -0.2 3 -4 3 -4 0 -4 0 -4 13 0 13 0 13 -3 13 -3 0 -3 0 -3 -13z"/>
  <path d="M352.9 387.7 c-4.5 -3 -5.8 -7.1 -5.8 -19.4 -0.1 -10.3 -0.1 -10.3 2.9 -10.3 3 0 3 0 3 9.9 0 11.5 0.9 14.8 4.4 15.7 6.6 1.6 8.6 -2 8.6 -15.7 0 -10 0 -10 2.8 -9.7 2.7 0.3 2.7 0.3 2.7 11.8 -0.1 9.5 -0.4 12 -1.9 14.3 -3.9 5.8 -11 7.3 -16.7 3.4z"/>
  <path d="M390 374 c0 -16 0 -16 4 -16 5.6 0 9.9 2 13.8 6.4 2.8 3.3 3.2 4.3 3.2 9.6 0 5.3 -0.4 6.3 -3.2 9.6 -3.9 4.4 -8.2 6.4 -13.8 6.4 -4 0 -4 0 -4 -16z m11.8 7.5 c6.1 -5.1 4.1 -14.6 -3.5 -16.9 -2.3 -0.7 -2.3 -0.6 -2.3 9.3 0 11.3 0.6 12 5.8 7.6z"/>
  <path d="M429 374 c0 -16 0 -16 3 -16 3 0 3 0 3 16 0 16 0 16 -3 16 -3 0 -3 0 -3 -16z"/>
  <path d="M453.4 388.7 c-0.2 -0.7 -0.3 -7.8 -0.2 -15.7 0.3 -14.5 0.3 -14.5 8.6 -14.8 8.2 -0.3 8.2 -0.3 8.2 2.8 0 3 0 3 -5.5 3 -5.5 0 -5.5 0 -5.5 3.5 0 3.4 0.1 3.5 4 3.5 3.8 0 4 0.2 4 3 0 2.8 -0.2 3 -4 3 -3.9 0 -4 0.1 -4 3.5 0 3.5 0 3.5 5.5 3.5 5.4 0 5.5 0 5.5 3 0 3 0 3 -8 3 -5.7 0 -8.2 -0.4 -8.6 -1.3z"/>
  <path d="M490 387 c0 -2.9 0.1 -3 5 -3 4.1 0 5.2 -0.4 6.5 -2.4 1.7 -2.6 1.1 -5.2 -1.6 -6.6 -1.5 -0.9 -1.8 -0.6 -2.1 1.9 -0.3 2.8 -0.4 2.9 -3.8 1.7 -4.9 -1.6 -7.8 -6.9 -6.5 -12.2 1.3 -4.8 6.2 -8.4 11.6 -8.4 3.7 0 3.9 0.2 3.9 3 0 2.7 -0.3 3 -3.1 3 -1.7 0 -3.9 0.5 -5 1 -2.1 1.2 -2.5 5 -0.7 6.8 1.8 1.8 2.8 1.5 2.8 -0.8 0 -5.3 10.8 0.7 11.1 6.2 0.5 8.7 -3.7 12.8 -13.1 12.8 -4.9 0 -5 -0.1 -5 -3z"/>
  <path d="M288.5 262.3 c-53.5 -91.5 -55.8 -95.4 -55.3 -95.7 0.8 -0.7 118.1 -25.6 118.6 -25.2 0.4 0.4 -19.6 193.7 -20.1 194.2 -0.1 0.1 -19.5 -32.9 -43.2 -73.3z m42 -3.3 c2.5 -24 4.5 -43.8 4.5 -44.2 0 -0.4 -2.8 -0.8 -6.2 -1 -6.2 -0.3 -6.2 -0.3 0.2 -2.9 6.1 -2.5 6.5 -2.9 6.8 -6.2 0.3 -3.6 0.3 -3.6 -8.9 -3.9 -9.3 -0.3 -9.3 -0.3 0.7 -4.4 8.8 -3.6 9.9 -4.3 10.2 -6.7 0.3 -2.7 0.3 -2.7 -13 -2.8 -13.3 0 -13.3 0 0.5 -4.7 12.2 -4.2 13.7 -4.9 13.7 -7 0 -2.3 0 -2.3 -10.7 -1.7 -6 0.3 -13 0.8 -15.8 1.1 -7.4 0.8 -4.8 -0.7 11 -6.1 7.7 -2.6 14.7 -5.2 15.6 -5.6 1.9 -1 3.1 -9.9 1.4 -9.9 -2.3 0 -91.1 19.4 -91.9 20.1 -0.4 0.4 13.7 25.6 31.5 56.1 44.2 75.8 45.3 77.7 45.6 75.3 0.2 -1.1 2.3 -21.6 4.8 -45.5z"/>
 </g>
 <g fill="#01ce3b">
  <path d="M276.9 130.7 c-9.2 -11.1 -16.5 -20.4 -16.3 -20.6 0.1 -0.1 7.8 4 17 9.2 16.7 9.6 16.7 9.6 19.3 7.8 5.1 -3.5 61.7 -43.4 65.1 -45.9 4.5 -3.3 -4 5.7 -39.2 41.6 -15.3 15.5 -28.2 28.2 -28.6 28.1 -0.4 0 -8.2 -9.1 -17.3 -20.2z"/>
 </g>
</svg>